<?xml version="1.0" encoding="UTF-8"?>
<!DOCTYPE svg PUBLIC "-//W3C//DTD SVG 1.1//EN" "http://www.w3.org/Graphics/SVG/1.1/DTD/svg11.dtd">
<svg xmlns="http://www.w3.org/2000/svg" version="1.1" width="512px" height="512px" style="shape-rendering:geometricPrecision; text-rendering:geometricPrecision; image-rendering:optimizeQuality; fill-rule:evenodd; clip-rule:evenodd" xmlns:xlink="http://www.w3.org/1999/xlink">
<g><path style="opacity:0.992" fill="#323232" d="M 205.5,-0.5 C 238.833,-0.5 272.167,-0.5 305.5,-0.5C 330.272,5.43638 346.105,20.7697 353,45.5C 354.475,102.134 354.975,158.801 354.5,215.5C 381.533,215.063 408.533,215.563 435.5,217C 443.304,219.104 445.137,223.604 441,230.5C 439.667,232.5 438.333,234.5 437,236.5C 383.833,289.667 330.667,342.833 277.5,396C 274.5,398.333 271.5,400.667 268.5,403C 260.103,408.724 251.77,408.724 243.5,403C 237.542,398.711 231.876,394.044 226.5,389C 173.943,337.111 122.11,284.611 71,231.5C 65.38,224.454 66.88,219.621 75.5,217C 102.467,215.563 129.467,215.063 156.5,215.5C 156.025,158.801 156.525,102.134 158,45.5C 164.895,20.7697 180.728,5.43638 205.5,-0.5 Z"/></g>
<g><path style="opacity:0.983" fill="#323232" d="M -0.5,373.5 C 12.8333,373.5 26.1667,373.5 39.5,373.5C 39.3334,401.169 39.5,428.835 40,456.5C 41.6748,462.841 45.5082,467.341 51.5,470C 119.443,471.162 187.443,471.662 255.5,471.5C 323.557,471.662 391.557,471.162 459.5,470C 465.492,467.341 469.325,462.841 471,456.5C 471.5,428.835 471.667,401.169 471.5,373.5C 484.833,373.5 498.167,373.5 511.5,373.5C 511.5,403.5 511.5,433.5 511.5,463.5C 505.167,489.167 489.167,505.167 463.5,511.5C 324.833,511.5 186.167,511.5 47.5,511.5C 21.8333,505.167 5.83333,489.167 -0.5,463.5C -0.5,433.5 -0.5,403.5 -0.5,373.5 Z"/></g>
</svg>
