<?xml version="1.0" encoding="UTF-8"?>
<!DOCTYPE svg PUBLIC "-//W3C//DTD SVG 1.1//EN" "http://www.w3.org/Graphics/SVG/1.1/DTD/svg11.dtd">
<svg xmlns="http://www.w3.org/2000/svg" version="1.1" width="540px" height="210px" style="shape-rendering:geometricPrecision; text-rendering:geometricPrecision; image-rendering:optimizeQuality; fill-rule:evenodd; clip-rule:evenodd" xmlns:xlink="http://www.w3.org/1999/xlink">
<g><path style="opacity:1" fill="#ca3836" d="M -0.5,-0.5 C 179.5,-0.5 359.5,-0.5 539.5,-0.5C 539.5,59.5 539.5,119.5 539.5,179.5C 449.5,179.5 359.5,179.5 269.5,179.5C 269.5,189.5 269.5,199.5 269.5,209.5C 229.5,209.5 189.5,209.5 149.5,209.5C 149.5,199.5 149.5,189.5 149.5,179.5C 99.5,179.5 49.5,179.5 -0.5,179.5C -0.5,119.5 -0.5,59.5 -0.5,-0.5 Z"/></g>
<g><path style="opacity:1" fill="#fefffe" d="M 29.5,29.5 C 69.5,29.5 109.5,29.5 149.5,29.5C 149.5,69.5 149.5,109.5 149.5,149.5C 139.5,149.5 129.5,149.5 119.5,149.5C 119.5,119.5 119.5,89.5 119.5,59.5C 109.5,59.5 99.5,59.5 89.5,59.5C 89.5,89.5 89.5,119.5 89.5,149.5C 69.5,149.5 49.5,149.5 29.5,149.5C 29.5,109.5 29.5,69.5 29.5,29.5 Z"/></g>
<g><path style="opacity:1" fill="#fefffe" d="M 179.5,29.5 C 219.5,29.5 259.5,29.5 299.5,29.5C 299.5,69.5 299.5,109.5 299.5,149.5C 279.5,149.5 259.5,149.5 239.5,149.5C 239.5,159.5 239.5,169.5 239.5,179.5C 219.5,179.5 199.5,179.5 179.5,179.5C 179.5,129.5 179.5,79.5 179.5,29.5 Z"/></g>
<g><path style="opacity:1" fill="#fefffe" d="M 329.5,29.5 C 389.5,29.5 449.5,29.5 509.5,29.5C 509.5,69.5 509.5,109.5 509.5,149.5C 499.5,149.5 489.5,149.5 479.5,149.5C 479.5,119.5 479.5,89.5 479.5,59.5C 469.5,59.5 459.5,59.5 449.5,59.5C 449.5,89.5 449.5,119.5 449.5,149.5C 439.5,149.5 429.5,149.5 419.5,149.5C 419.5,119.5 419.5,89.5 419.5,59.5C 409.5,59.5 399.5,59.5 389.5,59.5C 389.5,89.5 389.5,119.5 389.5,149.5C 369.5,149.5 349.5,149.5 329.5,149.5C 329.5,109.5 329.5,69.5 329.5,29.5 Z"/></g>
<g><path style="opacity:1" fill="#ca3836" d="M 239.5,59.5 C 249.5,59.5 259.5,59.5 269.5,59.5C 269.5,79.5 269.5,99.5 269.5,119.5C 259.5,119.5 249.5,119.5 239.5,119.5C 239.5,99.5 239.5,79.5 239.5,59.5 Z"/></g>
</svg>
