<?xml version="1.0" encoding="UTF-8"?>
<!DOCTYPE svg PUBLIC "-//W3C//DTD SVG 1.1//EN" "http://www.w3.org/Graphics/SVG/1.1/DTD/svg11.dtd">
<svg xmlns="http://www.w3.org/2000/svg" version="1.1" width="863px" height="1000px" style="shape-rendering:geometricPrecision; text-rendering:geometricPrecision; image-rendering:optimizeQuality; fill-rule:evenodd; clip-rule:evenodd" xmlns:xlink="http://www.w3.org/1999/xlink">
<g><path style="opacity:0.969" fill="#00d7fd" d="M 862.5,250.5 C 862.5,416.5 862.5,582.5 862.5,748.5C 718.612,831.362 574.779,914.362 431,997.5C 287.221,914.362 143.388,831.362 -0.5,748.5C -0.5,582.5 -0.5,416.5 -0.5,250.5C 143.388,167.638 287.221,84.6381 431,1.5C 574.779,84.6381 718.612,167.638 862.5,250.5 Z"/></g>
<g><path style="opacity:1" fill="#222222" d="M 430.5,24.5 C 567.309,103.741 704.309,182.741 841.5,261.5C 842.833,420.167 842.833,578.833 841.5,737.5C 704.422,816.121 567.588,895.121 431,974.5C 294.412,895.121 157.578,816.121 20.5,737.5C 19.1667,578.833 19.1667,420.167 20.5,261.5C 157.229,182.473 293.896,103.473 430.5,24.5 Z"/></g>
<g><path style="opacity:1" fill="#00d6fc" d="M 568.5,173.5 C 606.03,170.561 631.53,186.561 645,221.5C 652.081,242.232 655.581,263.565 655.5,285.5C 655.308,298.874 654.475,312.208 653,325.5C 650.61,343.033 647.61,360.366 644,377.5C 686.067,388.946 724.567,407.446 759.5,433C 809.102,475.233 810.102,518.566 762.5,563C 728.23,589.969 689.897,609.302 647.5,621C 646.572,621.388 645.905,622.055 645.5,623C 657.569,668.458 659.403,714.291 651,760.5C 634.243,818.631 597.076,837.798 539.5,818C 512.636,807.242 487.969,792.909 465.5,775C 454.616,765.112 443.449,755.612 432,746.5C 405.885,771.616 376.719,792.45 344.5,809C 324.415,818.801 303.248,824.301 281,825.5C 248.458,823.628 226.791,807.295 216,776.5C 210.634,761.64 207.634,746.307 207,730.5C 204.674,694.3 208.508,658.8 218.5,624C 176.159,612.585 137.826,593.585 103.5,567C 49.6408,518.171 51.6408,471.505 109.5,427C 142.806,404.017 179.14,387.517 218.5,377.5C 213.156,354.104 209.323,330.437 207,306.5C 204.282,278.601 206.948,251.268 215,224.5C 231.291,182.767 261.458,166.933 305.5,177C 334.601,185.218 361.267,198.218 385.5,216C 401.26,227.758 416.427,240.258 431,253.5C 444.863,241.304 459.03,229.47 473.5,218C 492.398,204.044 512.731,192.378 534.5,183C 545.702,178.87 557.035,175.703 568.5,173.5 Z"/></g>
<g><path style="opacity:1" fill="#222222" d="M 568.5,205.5 C 575.175,205.334 581.842,205.5 588.5,206C 597.925,208.099 605.092,213.266 610,221.5C 617.486,235.92 621.819,251.253 623,267.5C 624.551,301.944 621.384,335.944 613.5,369.5C 581.171,362.333 548.504,357.166 515.5,354C 496.731,326.888 476.064,301.221 453.5,277C 478.634,251.433 507.301,230.766 539.5,215C 548.99,210.891 558.657,207.725 568.5,205.5 Z"/></g>
<g><path style="opacity:1" fill="#222222" d="M 273.5,205.5 C 297.098,205.864 319.098,212.031 339.5,224C 364.819,238.978 388.153,256.645 409.5,277C 386.987,301.505 365.987,327.171 346.5,354C 314.491,356.668 282.825,361.502 251.5,368.5C 250.558,368.392 249.725,368.059 249,367.5C 239.017,329.69 236.017,291.357 240,252.5C 242.194,236.28 249.027,222.446 260.5,211C 264.741,208.651 269.075,206.818 273.5,205.5 Z"/></g>
<g><path style="opacity:1" fill="#222323" d="M 404.5,350.5 C 399.305,350.821 394.305,350.487 389.5,349.5C 402.378,331.949 416.378,315.283 431.5,299.5C 446.096,315.872 460.096,332.705 473.5,350C 450.502,350.5 427.502,350.667 404.5,350.5 Z"/></g>
<g><path style="opacity:1" fill="#1191a9" d="M 389.5,349.5 C 394.305,350.487 399.305,350.821 404.5,350.5C 399.015,351.652 393.349,351.818 387.5,351C 388.044,350.283 388.711,349.783 389.5,349.5 Z"/></g>
<g><path style="opacity:1" fill="#222222" d="M 392.5,381.5 C 427.528,381.187 462.528,382.02 497.5,384C 522.063,420.272 544.23,458.106 564,497.5C 564.667,498.5 564.667,499.5 564,500.5C 544.442,539.968 522.608,577.968 498.5,614.5C 494.541,615.327 490.541,615.827 486.5,616C 463.67,616.642 440.836,617.142 418,617.5C 400.107,617.707 382.274,616.874 364.5,615C 339.515,578.219 317.182,539.719 297.5,499.5C 317.182,459.281 339.515,420.781 364.5,384C 374.001,383.327 383.335,382.494 392.5,381.5 Z"/></g>
<g><path style="opacity:1" fill="#222323" d="M 314.5,388.5 C 317.518,388.335 320.518,388.502 323.5,389C 308.135,412.724 293.969,437.224 281,462.5C 271.804,441.744 264.304,420.411 258.5,398.5C 277.334,395.363 296.001,392.029 314.5,388.5 Z"/></g>
<g><path style="opacity:1" fill="#222323" d="M 538.5,389.5 C 560.716,390.758 582.716,394.425 604.5,400.5C 597.933,421.377 590.099,441.71 581,461.5C 567.767,436.809 553.6,412.809 538.5,389.5 Z"/></g>
<g><path style="opacity:1" fill="#222222" d="M 223.5,407.5 C 225.144,407.286 226.644,407.62 228,408.5C 237.829,439.49 249.329,469.823 262.5,499.5C 248.658,529.693 236.992,560.693 227.5,592.5C 188.751,583.209 153.751,566.376 122.5,542C 111.998,532.844 103.832,522.011 98,509.5C 96.0426,502.153 96.0426,494.819 98,487.5C 102.913,477.511 109.413,468.678 117.5,461C 133.48,448.002 150.814,437.002 169.5,428C 187.259,420.251 205.259,413.418 223.5,407.5 Z"/></g>
<g><path style="opacity:1" fill="#222222" d="M 634.5,408.5 C 673.825,417.832 709.491,434.665 741.5,459C 751.673,467.828 759.506,478.328 765,490.5C 766.729,503.642 763.396,515.308 755,525.5C 736.283,545.285 714.45,560.785 689.5,572C 672.486,579.34 655.152,585.84 637.5,591.5C 626.371,560.07 613.704,529.237 599.5,499C 613.26,469.645 624.927,439.479 634.5,408.5 Z"/></g>
<g><path style="opacity:1" fill="#00d7fd" d="M 420.5,433.5 C 460.482,431.666 485.649,449.999 496,488.5C 498.689,516.143 488.855,537.977 466.5,554C 432.528,572.138 403.028,566.638 378,537.5C 358.022,504.587 361.855,474.753 389.5,448C 398.894,440.967 409.227,436.134 420.5,433.5 Z"/></g>
<g><path style="opacity:1" fill="#222324" d="M 280.5,536.5 C 294.302,561.431 308.635,586.098 323.5,610.5C 320.894,611.652 318.227,611.818 315.5,611C 296.035,608.367 276.702,605.2 257.5,601.5C 264.174,579.478 271.841,557.811 280.5,536.5 Z"/></g>
<g><path style="opacity:1" fill="#222323" d="M 580.5,536.5 C 582.335,537.122 583.502,538.456 584,540.5C 591.785,558.521 598.785,576.854 605,595.5C 605.781,596.944 605.614,598.277 604.5,599.5C 583.089,604.569 561.422,608.235 539.5,610.5C 547.706,595.768 556.206,581.102 565,566.5C 570.448,556.603 575.614,546.603 580.5,536.5 Z"/></g>
<g><path style="opacity:1" fill="#222222" d="M 610.5,630.5 C 612.144,630.286 613.644,630.62 615,631.5C 625.812,670.417 627.812,709.751 621,749.5C 618.791,761.581 614.124,772.581 607,782.5C 602.108,788.197 595.941,791.697 588.5,793C 572.102,794.76 556.435,792.093 541.5,785C 508.883,769.379 479.883,748.713 454.5,723C 476.742,698.433 497.075,672.433 515.5,645C 547.692,642.655 579.358,637.822 610.5,630.5 Z"/></g>
<g><path style="opacity:1" fill="#222222" d="M 248.5,631.5 C 281.183,638.377 314.183,643.211 347.5,646C 366.987,672.829 387.987,698.495 410.5,723C 385.465,747.683 357.132,767.683 325.5,783C 309.031,790.937 291.697,794.27 273.5,793C 260.639,789.81 251.805,781.977 247,769.5C 237.593,741.506 234.926,712.839 239,683.5C 240.983,665.931 244.15,648.598 248.5,631.5 Z"/></g>
<g><path style="opacity:1" fill="#222324" d="M 389.5,648.5 C 417.835,648.333 446.169,648.5 474.5,649C 461.408,666.996 447.241,684.162 432,700.5C 416.463,684.145 402.296,666.812 389.5,648.5 Z"/></g>
</svg>
