<?xml version="1.0" encoding="UTF-8"?>
<!DOCTYPE svg PUBLIC "-//W3C//DTD SVG 1.1//EN" "http://www.w3.org/Graphics/SVG/1.1/DTD/svg11.dtd">
<svg xmlns="http://www.w3.org/2000/svg" version="1.1" width="572px" height="304px" style="shape-rendering:geometricPrecision; text-rendering:geometricPrecision; image-rendering:optimizeQuality; fill-rule:evenodd; clip-rule:evenodd" xmlns:xlink="http://www.w3.org/1999/xlink">
<g><path style="opacity:0.979" fill="#f54150" d="M 279.5,-0.5 C 284.833,-0.5 290.167,-0.5 295.5,-0.5C 305.301,2.46148 312.134,8.79481 316,18.5C 317.057,26.4641 317.723,34.4641 318,42.5C 318.576,50.1623 322.076,55.9957 328.5,60C 337.363,62.11 346.363,63.4433 355.5,64C 371.534,69.0333 379.867,80.0333 380.5,97C 379.391,113.58 371.058,124.58 355.5,130C 348.821,130.547 342.155,131.213 335.5,132C 328.055,132.781 322.888,136.614 320,143.5C 318.188,156.083 314.522,168.083 309,179.5C 297.104,192.426 283.271,194.926 267.5,187C 254.345,177.199 250.178,164.365 255,148.5C 258.5,139.667 264.667,133.5 273.5,130C 283.039,127.607 292.705,125.94 302.5,125C 310.539,123.296 315.706,118.463 318,110.5C 322.73,93.9209 319.23,79.4209 307.5,67C 296.846,64.7613 286.179,62.4279 275.5,60C 258.031,50.6076 252.531,36.4409 259,17.5C 263.256,8.40155 270.089,2.40155 279.5,-0.5 Z"/></g>
<g><path style="opacity:0.976" fill="#111111" d="M 220.5,64.5 C 244.719,66.8904 255.552,80.2237 253,104.5C 247.404,122.415 235.237,130.248 216.5,128C 204,124.833 196.167,117 193,104.5C 190.594,82.9258 199.761,69.5925 220.5,64.5 Z"/></g>
<g><path style="opacity:0.978" fill="#111111" d="M 163.5,128.5 C 184.074,129.407 195.741,140.073 198.5,160.5C 196.053,182.712 183.72,193.212 161.5,192C 142.615,186.076 134.448,173.242 137,153.5C 140.904,139.758 149.738,131.425 163.5,128.5 Z"/></g>
<g><path style="opacity:0.975" fill="#111111" d="M 388.5,128.5 C 412.76,129.593 424.26,142.26 423,166.5C 417.331,186.751 404.164,194.918 383.5,191C 369.866,185.512 362.533,175.346 361.5,160.5C 363.065,143.278 372.065,132.611 388.5,128.5 Z"/></g>
<g><path style="opacity:0.963" fill="#111111" d="M -0.5,238.5 C 13.545,238.112 27.545,238.612 41.5,240C 56.1256,245.176 60.2923,255.009 54,269.5C 51.7953,272.04 49.2953,274.207 46.5,276C 49.1707,277.25 51.3374,279.083 53,281.5C 54.0143,288.297 55.5143,294.964 57.5,301.5C 51.5276,302.664 45.5276,302.83 39.5,302C 37.8747,296.98 36.7081,291.814 36,286.5C 35.5348,285.069 34.7014,283.903 33.5,283C 27.9284,281.649 22.2617,281.149 16.5,281.5C 16.5,288.5 16.5,295.5 16.5,302.5C 10.8333,302.5 5.16667,302.5 -0.5,302.5C -0.5,281.167 -0.5,259.833 -0.5,238.5 Z M 16.5,253.5 C 22.1764,253.334 27.8431,253.501 33.5,254C 40.5581,257.25 41.2248,261.583 35.5,267C 29.1754,267.5 22.8421,267.666 16.5,267.5C 16.5,262.833 16.5,258.167 16.5,253.5 Z"/></g>
<g><path style="opacity:0.949" fill="#111111" d="M 273.5,238.5 C 287.874,238.131 302.207,238.631 316.5,240C 331.204,245.947 335.037,256.114 328,270.5C 325.766,272.7 323.266,274.533 320.5,276C 323.937,277.105 326.437,279.272 328,282.5C 328.958,287.123 329.625,291.79 330,296.5C 330.45,298.519 331.283,300.352 332.5,302C 326.141,302.831 319.807,302.664 313.5,301.5C 312.179,296.934 311.345,292.267 311,287.5C 310.727,285.671 309.893,284.171 308.5,283C 302.912,281.711 297.245,281.211 291.5,281.5C 291.5,288.5 291.5,295.5 291.5,302.5C 285.5,302.5 279.5,302.5 273.5,302.5C 273.5,281.167 273.5,259.833 273.5,238.5 Z M 291.5,253.5 C 297.176,253.334 302.843,253.501 308.5,254C 313.143,256.072 314.643,259.572 313,264.5C 312.097,265.701 310.931,266.535 309.5,267C 303.509,267.499 297.509,267.666 291.5,267.5C 291.5,262.833 291.5,258.167 291.5,253.5 Z"/></g>
<g><path style="opacity:0.959" fill="#121212" d="M 243.5,303.5 C 238.5,303.5 233.5,303.5 228.5,303.5C 224.853,302.017 222.353,299.35 221,295.5C 220.5,286.84 220.334,278.173 220.5,269.5C 218.5,269.5 216.5,269.5 214.5,269.5C 214.5,265.833 214.5,262.167 214.5,258.5C 217.475,258.287 220.142,257.287 222.5,255.5C 224.136,252.089 225.469,248.589 226.5,245C 230.152,244.501 233.818,244.335 237.5,244.5C 237.5,248.833 237.5,253.167 237.5,257.5C 241.5,257.5 245.5,257.5 249.5,257.5C 249.5,261.5 249.5,265.5 249.5,269.5C 245.5,269.5 241.5,269.5 237.5,269.5C 237.334,275.842 237.5,282.175 238,288.5C 241.4,290.758 244.9,290.758 248.5,288.5C 249.833,292.5 249.833,296.5 248.5,300.5C 246.604,301.275 244.937,302.275 243.5,303.5 Z"/></g>
<g><path style="opacity:0.965" fill="#121212" d="M 470.5,303.5 C 465.833,303.5 461.167,303.5 456.5,303.5C 452.521,301.685 449.688,298.685 448,294.5C 447.5,286.173 447.334,277.84 447.5,269.5C 445.5,269.5 443.5,269.5 441.5,269.5C 441.5,265.833 441.5,262.167 441.5,258.5C 449.632,257.653 453.632,252.986 453.5,244.5C 457.167,244.5 460.833,244.5 464.5,244.5C 464.5,248.833 464.5,253.167 464.5,257.5C 468.5,257.5 472.5,257.5 476.5,257.5C 476.5,261.5 476.5,265.5 476.5,269.5C 472.5,269.5 468.5,269.5 464.5,269.5C 464.334,275.509 464.501,281.509 465,287.5C 468.285,290.743 471.952,291.076 476,288.5C 476.667,292.5 476.667,296.5 476,300.5C 474.124,301.609 472.291,302.609 470.5,303.5 Z"/></g>
<g><path style="opacity:0.957" fill="#121212" d="M 93.5,303.5 C 88.1667,303.5 82.8333,303.5 77.5,303.5C 61.3177,296.83 56.4844,285.163 63,268.5C 70.0381,257.816 79.8715,253.982 92.5,257C 105.329,261.14 110.663,269.973 108.5,283.5C 98.1667,283.5 87.8333,283.5 77.5,283.5C 79.3188,290.147 83.6521,292.314 90.5,290C 92.6667,289.167 94.1667,287.667 95,285.5C 99.1337,286.196 103.3,286.863 107.5,287.5C 108.583,288.365 108.749,289.365 108,290.5C 105.093,297.029 100.259,301.362 93.5,303.5 Z M 82.5,268.5 C 87.4003,267.948 90.7337,269.948 92.5,274.5C 87.5,275.833 82.5,275.833 77.5,274.5C 78.497,271.845 80.1637,269.845 82.5,268.5 Z"/></g>
<g><path style="opacity:0.955" fill="#111111" d="M 159.5,303.5 C 155.833,303.5 152.167,303.5 148.5,303.5C 145.861,301.691 143.694,299.358 142,296.5C 139.783,299.677 136.95,302.011 133.5,303.5C 129.5,303.5 125.5,303.5 121.5,303.5C 113.114,300.389 110.281,294.389 113,285.5C 114.563,282.272 117.063,280.105 120.5,279C 126.715,277.131 133.048,275.797 139.5,275C 141.355,271.295 140.189,269.129 136,268.5C 132.927,269.239 130.76,271.072 129.5,274C 111.618,277.001 108.952,272.334 121.5,260C 149.932,250.422 162.099,260.589 158,290.5C 159.808,292.558 161.975,292.892 164.5,291.5C 164.665,294.518 164.498,297.518 164,300.5C 162.591,301.781 161.091,302.781 159.5,303.5 Z M 138.5,283.5 C 141.022,288.416 139.189,291.416 133,292.5C 128.388,291.658 127.554,289.491 130.5,286C 133.31,285.218 135.977,284.384 138.5,283.5 Z"/></g>
<g><path style="opacity:0.946" fill="#111111" d="M 198.5,303.5 C 193.167,303.5 187.833,303.5 182.5,303.5C 165.892,295.861 161.392,283.527 169,266.5C 177.4,256.578 187.9,253.744 200.5,258C 208.078,261.413 212.411,267.246 213.5,275.5C 208.538,276.496 203.538,277.163 198.5,277.5C 196.848,269.367 192.348,267.367 185,271.5C 181.364,278.038 181.864,284.204 186.5,290C 193.5,292.152 197.5,289.652 198.5,282.5C 203.538,282.837 208.538,283.504 213.5,284.5C 211.812,293.514 206.812,299.847 198.5,303.5 Z"/></g>
<g><path style="opacity:0.96" fill="#121212" d="M 367.5,303.5 C 362.5,303.5 357.5,303.5 352.5,303.5C 334.894,295.761 330.394,283.095 339,265.5C 346.767,257.248 356.267,254.414 367.5,257C 382.338,262.507 387.838,273.007 384,288.5C 380.802,296.205 375.302,301.205 367.5,303.5 Z M 356.5,269.5 C 361.439,268.352 364.939,270.019 367,274.5C 367.667,278.167 367.667,281.833 367,285.5C 364.928,290.143 361.428,291.643 356.5,290C 354.951,288.786 353.785,287.286 353,285.5C 351.52,279.451 352.686,274.118 356.5,269.5 Z"/></g>
<g><path style="opacity:0.958" fill="#121212" d="M 513.5,303.5 C 508.167,303.5 502.833,303.5 497.5,303.5C 480.097,296.139 475.597,283.806 484,266.5C 491.387,257.371 500.887,254.204 512.5,257C 524.832,261.482 530.165,270.316 528.5,283.5C 517.828,283.333 507.161,283.5 496.5,284C 499.225,290.115 503.892,292.115 510.5,290C 512.552,289.07 514.052,287.57 515,285.5C 519.529,286.095 524.029,286.928 528.5,288C 525.982,295.683 520.982,300.85 513.5,303.5 Z M 502.5,268.5 C 508.029,267.75 511.029,270.083 511.5,275.5C 506.833,275.5 502.167,275.5 497.5,275.5C 497.649,272.026 499.316,269.693 502.5,268.5 Z"/></g>
<g><path style="opacity:0.978" fill="#121212" d="M 558.5,256.5 C 562.24,256.241 565.906,256.574 569.5,257.5C 569.913,262.767 569.913,268.101 569.5,273.5C 565.204,272.537 560.871,272.371 556.5,273C 555.069,273.465 553.903,274.299 553,275.5C 551.586,284.418 551.086,293.418 551.5,302.5C 545.833,302.5 540.167,302.5 534.5,302.5C 534.5,287.5 534.5,272.5 534.5,257.5C 540.167,257.5 545.833,257.5 551.5,257.5C 551.34,259.199 551.506,260.866 552,262.5C 554.063,260.266 556.229,258.266 558.5,256.5 Z"/></g>
<g><path style="opacity:0.987" fill="#121212" d="M 413.5,303.5 C 409.167,303.5 404.833,303.5 400.5,303.5C 395.793,301.285 392.627,297.618 391,292.5C 390.5,280.838 390.333,269.171 390.5,257.5C 396.167,257.5 401.833,257.5 407.5,257.5C 407.334,266.839 407.5,276.173 408,285.5C 411.853,292.053 415.853,292.053 420,285.5C 420.5,276.173 420.666,266.839 420.5,257.5C 426.167,257.5 431.833,257.5 437.5,257.5C 437.5,272.5 437.5,287.5 437.5,302.5C 431.833,302.5 426.167,302.5 420.5,302.5C 420.657,301.127 420.49,299.793 420,298.5C 418.035,300.55 415.868,302.217 413.5,303.5 Z"/></g>
</svg>
