<?xml version="1.0" encoding="UTF-8"?>
<!DOCTYPE svg PUBLIC "-//W3C//DTD SVG 1.1//EN" "http://www.w3.org/Graphics/SVG/1.1/DTD/svg11.dtd">
<svg xmlns="http://www.w3.org/2000/svg" version="1.1" width="440px" height="250px" style="shape-rendering:geometricPrecision; text-rendering:geometricPrecision; image-rendering:optimizeQuality; fill-rule:evenodd; clip-rule:evenodd" xmlns:xlink="http://www.w3.org/1999/xlink">
<g><path style="opacity:0.991" fill="#0396d6" d="M 175.5,29.5 C 224.015,26.4038 256.015,47.7371 271.5,93.5C 309.443,81.4198 337.943,92.7532 357,127.5C 359.767,133.899 361.267,140.565 361.5,147.5C 389.959,149.046 402.459,164.046 399,192.5C 394.833,206 386,214.833 372.5,219C 278.167,219.667 183.833,219.667 89.5,219C 64.8317,213.999 48.665,199.499 41,175.5C 34.5451,143.249 45.7118,119.416 74.5,104C 84.812,100.203 95.4786,98.5361 106.5,99C 114.978,61.3553 137.978,38.1887 175.5,29.5 Z"/></g>
<g><path style="opacity:1" fill="#f8fbfd" d="M 218.5,187.5 C 218.5,189.833 218.5,192.167 218.5,194.5C 217.167,194.5 215.833,194.5 214.5,194.5C 209.713,193.844 206.546,191.178 205,186.5C 204.667,178.833 204.333,171.167 204,163.5C 202.758,162.128 201.258,161.128 199.5,160.5C 198.52,157.914 198.187,155.247 198.5,152.5C 201.238,153.035 203.072,152.035 204,149.5C 204.333,142.167 204.667,134.833 205,127.5C 207.678,121.076 212.511,118.076 219.5,118.5C 219.663,120.857 219.497,123.19 219,125.5C 216.763,126.056 214.763,127.056 213,128.5C 212.667,136.167 212.333,143.833 212,151.5C 211.546,153.536 210.713,155.37 209.5,157C 210.317,158.49 211.15,159.99 212,161.5C 212.333,169.167 212.667,176.833 213,184.5C 214.174,186.671 216.007,187.671 218.5,187.5 Z"/></g>
<g><path style="opacity:1" fill="#f7fafd" d="M 342.5,152.5 C 344.202,154.8 344.868,157.467 344.5,160.5C 342.097,160.393 340.264,161.393 339,163.5C 338.667,171.167 338.333,178.833 338,186.5C 335.457,192.358 330.957,195.025 324.5,194.5C 324.5,192.167 324.5,189.833 324.5,187.5C 326.582,187.528 328.416,186.861 330,185.5C 330.333,177.833 330.667,170.167 331,162.5C 331.97,160.726 332.804,158.893 333.5,157C 332.528,154.889 331.695,152.722 331,150.5C 330.667,143.167 330.333,135.833 330,128.5C 328.556,126.845 326.722,126.178 324.5,126.5C 324.5,123.833 324.5,121.167 324.5,118.5C 329.62,118.476 333.787,120.476 337,124.5C 338.273,132.731 338.94,141.064 339,149.5C 339.422,151.426 340.589,152.426 342.5,152.5 Z"/></g>
<g><path style="opacity:1" fill="#f7fafd" d="M 85.5,126.5 C 88.1194,126.232 90.6194,126.565 93,127.5C 99.5049,145.017 106.005,162.517 112.5,180C 109.518,180.498 106.518,180.665 103.5,180.5C 102.909,177.06 101.909,173.727 100.5,170.5C 93.1893,169.335 85.856,169.169 78.5,170C 77.1667,173.333 75.8333,176.667 74.5,180C 71.7728,180.818 69.1062,180.652 66.5,179.5C 73.1326,161.909 79.4659,144.243 85.5,126.5 Z"/></g>
<g><path style="opacity:1" fill="#fafcfd" d="M 143.5,159.5 C 138.167,159.5 132.833,159.5 127.5,159.5C 127.5,166.5 127.5,173.5 127.5,180.5C 125.167,180.5 122.833,180.5 120.5,180.5C 120.5,162.5 120.5,144.5 120.5,126.5C 130.315,125.927 139.982,126.76 149.5,129C 158.928,137.007 159.928,146.007 152.5,156C 149.928,158.287 146.928,159.453 143.5,159.5 Z"/></g>
<g><path style="opacity:1" fill="#fefffe" d="M 166.5,127.5 C 168.833,127.5 171.167,127.5 173.5,127.5C 173.5,145.167 173.5,162.833 173.5,180.5C 171.167,180.5 168.833,180.5 166.5,180.5C 166.5,162.833 166.5,145.167 166.5,127.5 Z"/></g>
<g><path style="opacity:1" fill="#a2ceea" d="M 166.5,127.5 C 168.948,126.527 171.615,126.194 174.5,126.5C 174.83,144.674 174.497,162.674 173.5,180.5C 173.5,162.833 173.5,145.167 173.5,127.5C 171.167,127.5 168.833,127.5 166.5,127.5 Z"/></g>
<g><path style="opacity:1" fill="#1497d6" d="M 127.5,134.5 C 132.844,134.334 138.177,134.501 143.5,135C 147.48,136.478 149.146,139.312 148.5,143.5C 149.173,147.281 147.839,150.114 144.5,152C 138.843,152.499 133.176,152.666 127.5,152.5C 127.5,146.5 127.5,140.5 127.5,134.5 Z"/></g>
<g><path style="opacity:1" fill="#229ad7" d="M 88.5,139.5 C 89.7899,140.058 90.6232,141.058 91,142.5C 93.2685,148.473 95.4352,154.473 97.5,160.5C 92.1667,161.833 86.8333,161.833 81.5,160.5C 84.0387,153.55 86.3721,146.55 88.5,139.5 Z"/></g>
<g><path style="opacity:1" fill="#f0f7fb" d="M 283.5,142.5 C 288.241,141.963 292.574,142.963 296.5,145.5C 295.653,148.856 293.987,149.356 291.5,147C 289.167,146.333 286.833,146.333 284.5,147C 283.24,148.814 283.24,150.647 284.5,152.5C 289.142,153.651 293.309,155.651 297,158.5C 298.361,163.274 296.861,166.774 292.5,169C 287.771,169.996 283.271,169.496 279,167.5C 278.301,165.926 278.635,164.593 280,163.5C 283.595,165.456 287.428,165.956 291.5,165C 293.527,163.604 293.86,161.938 292.5,160C 289.216,158.875 285.883,157.875 282.5,157C 277.163,151.825 277.497,146.992 283.5,142.5 Z"/></g>
<g><path style="opacity:1" fill="#d3e7f4" d="M 246.5,143.5 C 242.167,143.5 237.833,143.5 233.5,143.5C 233.5,152.167 233.5,160.833 233.5,169.5C 232.507,160.682 232.173,151.682 232.5,142.5C 237.363,142.181 242.03,142.514 246.5,143.5 Z"/></g>
<g><path style="opacity:1" fill="#f7fafd" d="M 246.5,143.5 C 250.926,145.359 252.426,148.692 251,153.5C 249.818,155.344 248.651,157.177 247.5,159C 248.903,162.473 250.57,165.806 252.5,169C 250.833,169.667 249.167,169.667 247.5,169C 245.706,165.912 244.039,162.746 242.5,159.5C 240.604,158.534 238.604,158.201 236.5,158.5C 236.5,162.167 236.5,165.833 236.5,169.5C 235.5,169.5 234.5,169.5 233.5,169.5C 233.5,160.833 233.5,152.167 233.5,143.5C 237.833,143.5 242.167,143.5 246.5,143.5 Z"/></g>
<g><path style="opacity:1" fill="#ebf4fa" d="M 256.5,142.5 C 262.5,142.5 268.5,142.5 274.5,142.5C 274.5,143.833 274.5,145.167 274.5,146.5C 270.167,146.5 265.833,146.5 261.5,146.5C 261.5,149.167 261.5,151.833 261.5,154.5C 265.167,154.5 268.833,154.5 272.5,154.5C 272.5,155.833 272.5,157.167 272.5,158.5C 268.833,158.5 265.167,158.5 261.5,158.5C 261.5,160.833 261.5,163.167 261.5,165.5C 265.833,165.5 270.167,165.5 274.5,165.5C 274.5,166.833 274.5,168.167 274.5,169.5C 268.5,169.5 262.5,169.5 256.5,169.5C 256.5,160.5 256.5,151.5 256.5,142.5 Z"/></g>
<g><path style="opacity:1" fill="#f5f9fc" d="M 298.5,142.5 C 304.833,142.5 311.167,142.5 317.5,142.5C 317.5,143.833 317.5,145.167 317.5,146.5C 315.167,146.5 312.833,146.5 310.5,146.5C 310.5,154.167 310.5,161.833 310.5,169.5C 309.167,169.5 307.833,169.5 306.5,169.5C 306.5,161.833 306.5,154.167 306.5,146.5C 303.833,146.5 301.167,146.5 298.5,146.5C 298.5,145.167 298.5,143.833 298.5,142.5 Z"/></g>
<g><path style="opacity:1" fill="#229ad7" d="M 236.5,146.5 C 239.518,146.335 242.518,146.502 245.5,147C 246.833,149.333 246.833,151.667 245.5,154C 242.518,154.498 239.518,154.665 236.5,154.5C 236.5,151.833 236.5,149.167 236.5,146.5 Z"/></g>
<g><path style="opacity:1" fill="#9eccea" d="M 342.5,152.5 C 343.5,152.5 344.5,152.5 345.5,152.5C 345.806,155.385 345.473,158.052 344.5,160.5C 344.868,157.467 344.202,154.8 342.5,152.5 Z"/></g>
<g><path style="opacity:1" fill="#7bbce4" d="M 143.5,159.5 C 138.695,160.487 133.695,160.821 128.5,160.5C 128.824,167.354 128.491,174.021 127.5,180.5C 127.5,173.5 127.5,166.5 127.5,159.5C 132.833,159.5 138.167,159.5 143.5,159.5 Z"/></g>
<g><path style="opacity:1" fill="#98c9e9" d="M 218.5,187.5 C 219.473,189.948 219.806,192.615 219.5,195.5C 217.585,195.784 215.919,195.451 214.5,194.5C 215.833,194.5 217.167,194.5 218.5,194.5C 218.5,192.167 218.5,189.833 218.5,187.5 Z"/></g>
</svg>
