<?xml version="1.0" encoding="UTF-8"?>
<!DOCTYPE svg PUBLIC "-//W3C//DTD SVG 1.1//EN" "http://www.w3.org/Graphics/SVG/1.1/DTD/svg11.dtd">
<svg xmlns="http://www.w3.org/2000/svg" version="1.1" width="216px" height="216px" style="shape-rendering:geometricPrecision; text-rendering:geometricPrecision; image-rendering:optimizeQuality; fill-rule:evenodd; clip-rule:evenodd" xmlns:xlink="http://www.w3.org/1999/xlink">
<g><path style="opacity:0.998" fill="#69ab80" d="M 174.5,6.5 C 135.017,50.3541 96.0166,93.3541 57.5,135.5C 53.655,131.152 51.4883,126.152 51,120.5C 72.5,82.8333 94,45.1667 115.5,7.5C 135.155,6.50038 154.822,6.16705 174.5,6.5 Z"/></g>
<g><path style="opacity:0.997" fill="#63a479" d="M 174.5,6.5 C 187.517,6.16754 200.517,6.50088 213.5,7.5C 210.059,14.0598 206.392,20.3931 202.5,26.5C 202.472,24.4176 203.139,22.5843 204.5,21C 203.833,20.3333 203.167,20.3333 202.5,21C 189.129,35.1397 176.795,49.3064 165.5,63.5C 164.178,63.33 163.011,63.6634 162,64.5C 160.739,67.2114 158.906,69.378 156.5,71C 147.798,82.2757 137.965,93.109 127,103.5C 112.417,121.12 96.7501,138.453 80,155.5C 77.9715,158.029 76.1381,160.696 74.5,163.5C 76.0198,165.662 77.0198,167.995 77.5,170.5C 70.078,159.33 63.4114,147.663 57.5,135.5C 96.0166,93.3541 135.017,50.3541 174.5,6.5 Z"/></g>
<g><path style="opacity:0.989" fill="#69b482" d="M 1.5,39.5 C 29.8412,39.1669 58.1745,39.5002 86.5,40.5C 72.8261,65.1897 58.6594,89.5231 44,113.5C 29.0636,89.2963 14.897,64.6296 1.5,39.5 Z"/></g>
<g><path style="opacity:0.998" fill="#5fa176" d="M 202.5,26.5 C 189.197,50.4472 175.53,74.1139 161.5,97.5C 161.19,96.2617 160.69,96.2617 160,97.5C 159.383,96.5509 159.549,95.7175 160.5,95C 159.584,94.6258 158.75,94.1258 158,93.5C 155.404,96.0261 153.57,98.5261 152.5,101C 153.624,101.249 154.624,101.749 155.5,102.5C 155.333,102.833 155.167,103.167 155,103.5C 153.667,102.833 152.333,102.167 151,101.5C 147.011,105.395 143.511,109.729 140.5,114.5C 139.335,115.584 138.002,116.417 136.5,117C 138.291,117.415 139.624,118.415 140.5,120C 138.965,119.339 137.298,119.006 135.5,119C 135.488,120.84 134.654,122.673 133,124.5C 132.667,124.167 132.333,123.833 132,123.5C 130.333,124.833 128.667,126.167 127,127.5C 127,128.833 127,130.167 127,131.5C 125.336,129.195 123.836,129.528 122.5,132.5C 123.64,134.078 124.14,135.744 124,137.5C 123.28,135.745 122.113,134.911 120.5,135C 121.022,135.561 121.355,136.228 121.5,137C 119.963,137.383 118.63,138.216 117.5,139.5C 119.828,141.574 119.161,142.574 115.5,142.5C 115.646,144.942 114.813,145.609 113,144.5C 111.748,146.001 110.748,147.668 110,149.5C 109.333,148.167 108.667,148.167 108,149.5C 108,150.833 108,152.167 108,153.5C 106.309,150.869 105.142,151.203 104.5,154.5C 101.539,155.183 101.205,156.016 103.5,157C 102.437,158.188 101.103,158.688 99.5,158.5C 99.2714,160.433 98.4381,162.1 97,163.5C 96.6667,162.833 96.3333,162.167 96,161.5C 94.6667,164.167 93.3333,166.833 92,169.5C 91.3333,168.833 90.6667,168.167 90,167.5C 89.6824,169.061 88.8491,170.228 87.5,171C 87.8333,171.333 88.1667,171.667 88.5,172C 87.3474,173.883 85.6807,174.716 83.5,174.5C 83.3287,177.797 83.9954,178.131 85.5,175.5C 86.3081,175.808 86.9747,176.308 87.5,177C 86.6243,178.585 85.2909,179.585 83.5,180C 84.3366,181.011 84.67,182.178 84.5,183.5C 81.7728,179.423 79.4394,175.09 77.5,170.5C 77.0198,167.995 76.0198,165.662 74.5,163.5C 76.1381,160.696 77.9715,158.029 80,155.5C 96.7501,138.453 112.417,121.12 127,103.5C 137.965,93.109 147.798,82.2757 156.5,71C 158.906,69.378 160.739,67.2114 162,64.5C 163.011,63.6634 164.178,63.33 165.5,63.5C 176.795,49.3064 189.129,35.1397 202.5,21C 203.167,20.3333 203.833,20.3333 204.5,21C 203.139,22.5843 202.472,24.4176 202.5,26.5 Z"/></g>
<g><path style="opacity:0.998" fill="#5b9c72" d="M 161.5,97.5 C 160.358,101.117 158.692,104.45 156.5,107.5C 136.803,140.552 117.47,173.886 98.5,207.5C 93.3436,199.864 88.677,191.864 84.5,183.5C 84.67,182.178 84.3366,181.011 83.5,180C 85.2909,179.585 86.6243,178.585 87.5,177C 86.9747,176.308 86.3081,175.808 85.5,175.5C 83.9954,178.131 83.3287,177.797 83.5,174.5C 85.6807,174.716 87.3474,173.883 88.5,172C 88.1667,171.667 87.8333,171.333 87.5,171C 88.8491,170.228 89.6824,169.061 90,167.5C 90.6667,168.167 91.3333,168.833 92,169.5C 93.3333,166.833 94.6667,164.167 96,161.5C 96.3333,162.167 96.6667,162.833 97,163.5C 98.4381,162.1 99.2714,160.433 99.5,158.5C 101.103,158.688 102.437,158.188 103.5,157C 101.205,156.016 101.539,155.183 104.5,154.5C 105.142,151.203 106.309,150.869 108,153.5C 108,152.167 108,150.833 108,149.5C 108.667,148.167 109.333,148.167 110,149.5C 110.748,147.668 111.748,146.001 113,144.5C 114.813,145.609 115.646,144.942 115.5,142.5C 119.161,142.574 119.828,141.574 117.5,139.5C 118.63,138.216 119.963,137.383 121.5,137C 121.355,136.228 121.022,135.561 120.5,135C 122.113,134.911 123.28,135.745 124,137.5C 124.14,135.744 123.64,134.078 122.5,132.5C 123.836,129.528 125.336,129.195 127,131.5C 127,130.167 127,128.833 127,127.5C 128.667,126.167 130.333,124.833 132,123.5C 132.333,123.833 132.667,124.167 133,124.5C 134.654,122.673 135.488,120.84 135.5,119C 137.298,119.006 138.965,119.339 140.5,120C 139.624,118.415 138.291,117.415 136.5,117C 138.002,116.417 139.335,115.584 140.5,114.5C 143.511,109.729 147.011,105.395 151,101.5C 152.333,102.167 153.667,102.833 155,103.5C 155.167,103.167 155.333,102.833 155.5,102.5C 154.624,101.749 153.624,101.249 152.5,101C 153.57,98.5261 155.404,96.0261 158,93.5C 158.75,94.1258 159.584,94.6258 160.5,95C 159.549,95.7175 159.383,96.5509 160,97.5C 160.69,96.2617 161.19,96.2617 161.5,97.5 Z"/></g>
<g><path style="opacity:0.998" fill="#36495b" d="M 156.5,107.5 C 164.083,120.33 171.416,133.33 178.5,146.5C 178.877,148.258 179.544,149.925 180.5,151.5C 178.208,155.921 175.541,160.088 172.5,164C 172.972,166.399 171.972,168.399 169.5,170C 168.465,174.623 165.798,179.29 161.5,184C 161.5,185 161.5,186 161.5,187C 156.89,194.811 152.556,201.644 148.5,207.5C 131.833,207.5 115.167,207.5 98.5,207.5C 117.47,173.886 136.803,140.552 156.5,107.5 Z"/></g>
<g><path style="opacity:0.993" fill="#3a4d5f" d="M 178.5,146.5 C 190.645,166.109 202.311,186.109 213.5,206.5C 191.844,207.5 170.177,207.833 148.5,207.5C 152.556,201.644 156.89,194.811 161.5,187C 161.5,186 161.5,185 161.5,184C 165.798,179.29 168.465,174.623 169.5,170C 171.972,168.399 172.972,166.399 172.5,164C 175.541,160.088 178.208,155.921 180.5,151.5C 179.544,149.925 178.877,148.258 178.5,146.5 Z"/></g>
</svg>
