<?xml version="1.0" encoding="UTF-8"?>
<!DOCTYPE svg PUBLIC "-//W3C//DTD SVG 1.1//EN" "http://www.w3.org/Graphics/SVG/1.1/DTD/svg11.dtd">
<svg xmlns="http://www.w3.org/2000/svg" version="1.1" width="2000px" height="2000px" style="shape-rendering:geometricPrecision; text-rendering:geometricPrecision; image-rendering:optimizeQuality; fill-rule:evenodd; clip-rule:evenodd" xmlns:xlink="http://www.w3.org/1999/xlink">
<g><path style="opacity:0.999" fill="#35495e" d="M 849.5,549.5 C 774.661,699.845 699.328,849.845 623.5,999.5C 499.116,749.732 374.449,500.065 249.5,250.5C 399.833,249.167 550.167,249.167 700.5,250.5C 750.449,350.065 800.116,449.732 849.5,549.5 Z"/></g>
<g><path style="opacity:0.999" fill="#35495e" d="M 1375.5,999.5 C 1299.67,849.845 1224.34,699.845 1149.5,549.5C 1198.88,449.732 1248.55,350.065 1298.5,250.5C 1448.83,249.167 1599.17,249.167 1749.5,250.5C 1624.55,500.065 1499.88,749.732 1375.5,999.5 Z"/></g>
<g><path style="opacity:1" fill="#4ebf8c" d="M 849.5,549.5 C 899.47,648.772 949.47,748.106 999.5,847.5C 1049.53,748.106 1099.53,648.772 1149.5,549.5C 1224.34,699.845 1299.67,849.845 1375.5,999.5C 1499.88,1249.27 1624.55,1498.94 1749.5,1748.5C 1599.17,1749.83 1448.83,1749.83 1298.5,1748.5C 1199.09,1549.34 1099.42,1350.34 999.5,1151.5C 899.578,1350.34 799.911,1549.34 700.5,1748.5C 550.167,1749.83 399.833,1749.83 249.5,1748.5C 374.449,1498.94 499.116,1249.27 623.5,999.5C 699.328,849.845 774.661,699.845 849.5,549.5 Z"/></g>
</svg>
