<?xml version="1.0" encoding="UTF-8"?>
<!DOCTYPE svg PUBLIC "-//W3C//DTD SVG 1.1//EN" "http://www.w3.org/Graphics/SVG/1.1/DTD/svg11.dtd">
<svg xmlns="http://www.w3.org/2000/svg" version="1.1" width="400px" height="400px" style="shape-rendering:geometricPrecision; text-rendering:geometricPrecision; image-rendering:optimizeQuality; fill-rule:evenodd; clip-rule:evenodd" xmlns:xlink="http://www.w3.org/1999/xlink">
<g><path style="opacity:1" fill="#97d5f7" d="M 204.5,4.5 C 205.873,4.34332 207.207,4.50999 208.5,5C 249.692,28.4262 290.692,52.0929 331.5,76C 317.419,85.7324 302.586,94.2324 287,101.5C 258.925,87.797 231.592,72.797 205,56.5C 204.5,39.1699 204.333,21.8365 204.5,4.5 Z"/></g>
<g><path style="opacity:1" fill="#97d5f7" d="M 191.5,4.5 C 192.5,4.5 193.5,4.5 194.5,4.5C 194.667,22.1698 194.5,39.8365 194,57.5C 167.179,72.8269 140.012,87.4936 112.5,101.5C 96.5834,94.5438 81.5834,86.0438 67.5,76C 67.8333,75.5 68.1667,75 68.5,74.5C 109.725,51.3925 150.725,28.0591 191.5,4.5 Z"/></g>
<g><path style="opacity:1" fill="#3275bc" d="M 214.5,74.5 C 216.703,77.4384 219.703,79.1051 223.5,79.5C 224.552,81.6551 223.886,81.9884 221.5,80.5C 220.692,80.8076 220.025,81.3076 219.5,82C 226.076,84.9184 232.742,87.7517 239.5,90.5C 237.878,92.4386 236.044,92.772 234,91.5C 232.383,92.5358 232.216,93.7025 233.5,95C 235.515,95.4243 237.349,96.2576 239,97.5C 239.5,97.3333 240,97.1667 240.5,97C 239,94.8333 239.5,93.3333 242,92.5C 244.639,93.9944 247.472,94.6611 250.5,94.5C 250.5,95.5 250.5,96.5 250.5,97.5C 252.665,97.1159 254.332,97.7826 255.5,99.5C 253.019,100.86 253.352,101.86 256.5,102.5C 257.293,102.069 258.127,101.735 259,101.5C 263.34,103.668 267.84,105.335 272.5,106.5C 272.5,107.5 272.5,108.5 272.5,109.5C 268.217,110.798 264.05,110.465 260,108.5C 257.228,110.761 254.062,112.261 250.5,113C 246.609,114.963 246.609,116.796 250.5,118.5C 251.478,118.023 252.311,117.357 253,116.5C 253.374,117.416 253.874,118.25 254.5,119C 252.833,119.333 251.167,119.667 249.5,120C 247.418,122.421 245.085,124.588 242.5,126.5C 240.955,127.452 239.288,127.785 237.5,127.5C 237.833,123.167 235.833,121.167 231.5,121.5C 231.33,122.822 231.663,123.989 232.5,125C 231.833,125.333 231.167,125.667 230.5,126C 232.377,127.185 234.377,128.185 236.5,129C 234.633,129.919 232.633,130.419 230.5,130.5C 229.167,131.5 229.167,132.5 230.5,133.5C 228.153,134.151 226.486,135.484 225.5,137.5C 223.533,137.739 221.699,137.406 220,136.5C 218.812,137.563 218.312,138.897 218.5,140.5C 217.167,140.5 215.833,140.5 214.5,140.5C 214.5,141.5 214.5,142.5 214.5,143.5C 212.833,143.5 211.167,143.5 209.5,143.5C 209.5,144.5 209.5,145.5 209.5,146.5C 207.833,146.5 206.167,146.5 204.5,146.5C 204.567,147.959 204.234,149.292 203.5,150.5C 198.962,151.128 195.295,149.628 192.5,146C 190.866,145.506 189.199,145.34 187.5,145.5C 187.714,143.856 187.38,142.356 186.5,141C 184.167,140.667 181.833,140.333 179.5,140C 184.783,137.1 184.116,135.766 177.5,136C 178.684,134.82 179.351,133.32 179.5,131.5C 179.076,129.13 178.909,126.796 179,124.5C 180.011,125.337 181.178,125.67 182.5,125.5C 182.5,123.833 182.5,122.167 182.5,120.5C 179.654,120.03 177.321,120.863 175.5,123C 176.167,123.333 176.833,123.667 177.5,124C 173.345,123.898 169.678,125.064 166.5,127.5C 166.846,128.696 167.346,128.696 168,127.5C 168.667,128.833 168.667,130.167 168,131.5C 162.279,129.056 156.779,126.223 151.5,123C 150.207,122.51 148.873,122.343 147.5,122.5C 145.569,118.737 142.569,116.237 138.5,115C 138.966,113.701 138.966,112.201 138.5,110.5C 134.774,110.823 131.107,110.489 127.5,109.5C 129.063,106.971 131.396,105.971 134.5,106.5C 134.52,102.487 135.853,101.82 138.5,104.5C 140.98,103.585 141.647,102.085 140.5,100C 141.381,99.2917 142.047,98.4584 142.5,97.5C 150.173,92.6618 158.173,88.3285 166.5,84.5C 168.144,84.2865 169.644,84.6198 171,85.5C 171.374,84.5838 171.874,83.7504 172.5,83C 177.605,80.2012 182.939,78.0345 188.5,76.5C 189.876,73.6235 192.042,71.6235 195,70.5C 195.772,70.6448 196.439,70.9781 197,71.5C 201.82,68.4097 205.32,69.4097 207.5,74.5C 209.833,74.5 212.167,74.5 214.5,74.5 Z"/></g>
<g><path style="opacity:1" fill="#4c7aab" d="M 214.5,74.5 C 212.167,74.5 209.833,74.5 207.5,74.5C 205.32,69.4097 201.82,68.4097 197,71.5C 196.439,70.9781 195.772,70.6448 195,70.5C 192.042,71.6235 189.876,73.6235 188.5,76.5C 182.939,78.0345 177.605,80.2012 172.5,83C 171.874,83.7504 171.374,84.5838 171,85.5C 169.644,84.6198 168.144,84.2865 166.5,84.5C 176.995,77.7493 187.995,71.7493 199.5,66.5C 204.684,68.9237 209.684,71.5904 214.5,74.5 Z"/></g>
<g><path style="opacity:1" fill="#7495bb" d="M 214.5,74.5 C 217.992,75.4097 220.992,77.0764 223.5,79.5C 219.703,79.1051 216.703,77.4384 214.5,74.5 Z"/></g>
<g><path style="opacity:1" fill="#487bb4" d="M 223.5,79.5 C 232.991,83.7427 241.991,88.7427 250.5,94.5C 247.472,94.6611 244.639,93.9944 242,92.5C 239.5,93.3333 239,94.8333 240.5,97C 240,97.1667 239.5,97.3333 239,97.5C 237.349,96.2576 235.515,95.4243 233.5,95C 232.216,93.7025 232.383,92.5358 234,91.5C 236.044,92.772 237.878,92.4386 239.5,90.5C 232.742,87.7517 226.076,84.9184 219.5,82C 220.025,81.3076 220.692,80.8076 221.5,80.5C 223.886,81.9884 224.552,81.6551 223.5,79.5 Z"/></g>
<g><path style="opacity:1" fill="#4e7db1" d="M 250.5,94.5 C 258.482,97.4875 265.815,101.488 272.5,106.5C 267.84,105.335 263.34,103.668 259,101.5C 258.127,101.735 257.293,102.069 256.5,102.5C 253.352,101.86 253.019,100.86 255.5,99.5C 254.332,97.7826 252.665,97.1159 250.5,97.5C 250.5,96.5 250.5,95.5 250.5,94.5 Z"/></g>
<g><path style="opacity:1" fill="#96d5f8" d="M 71.5,91.5 C 81.6063,96.7216 91.6063,102.222 101.5,108C 103.649,109.152 105.482,110.652 107,112.5C 107.667,143.833 107.667,175.167 107,206.5C 102.26,209.424 97.4264,212.09 92.5,214.5C 89.8333,214.5 87.1667,214.5 84.5,214.5C 84.5,215.833 84.5,217.167 84.5,218.5C 82.5,218.5 80.5,218.5 78.5,218.5C 78.5,219.5 78.5,220.5 78.5,221.5C 75.0306,220.887 73.0306,222.221 72.5,225.5C 69.0921,224.828 66.4255,225.828 64.5,228.5C 63.5001,182.171 63.1667,135.838 63.5,89.5C 66.3274,89.5838 68.994,90.2504 71.5,91.5 Z"/></g>
<g><path style="opacity:1" fill="#497aaf" d="M 142.5,97.5 C 142.047,98.4584 141.381,99.2917 140.5,100C 141.647,102.085 140.98,103.585 138.5,104.5C 135.853,101.82 134.52,102.487 134.5,106.5C 131.396,105.971 129.063,106.971 127.5,109.5C 131.107,110.489 134.774,110.823 138.5,110.5C 138.966,112.201 138.966,113.701 138.5,115C 142.569,116.237 145.569,118.737 147.5,122.5C 138.863,118.851 130.863,114.184 123.5,108.5C 129.362,104.067 135.695,100.401 142.5,97.5 Z"/></g>
<g><path style="opacity:1" fill="#b1dbf0" d="M 71.5,91.5 C 68.994,90.2504 66.3274,89.5838 63.5,89.5C 63.1667,135.838 63.5001,182.171 64.5,228.5C 66.4255,225.828 69.0921,224.828 72.5,225.5C 73.0306,222.221 75.0306,220.887 78.5,221.5C 78.5,220.5 78.5,219.5 78.5,218.5C 80.5,218.5 82.5,218.5 84.5,218.5C 84.5,217.167 84.5,215.833 84.5,214.5C 87.1667,214.5 89.8333,214.5 92.5,214.5C 82.9584,220.526 73.125,226.192 63,231.5C 62.0546,231.095 61.3879,230.428 61,229.5C 60.3333,182.167 60.3333,134.833 61,87.5C 61.3076,86.6919 61.8076,86.0253 62.5,85.5C 65.7376,87.2753 68.7376,89.2753 71.5,91.5 Z"/></g>
<g><path style="opacity:1" fill="#95d4f8" d="M 306.5,214.5 C 301.5,212.336 296.833,209.669 292.5,206.5C 292.333,175.165 292.5,143.832 293,112.5C 293.717,111.956 294.217,111.289 294.5,110.5C 306.164,102.999 318.164,95.9986 330.5,89.5C 332.722,89.822 334.556,89.1554 336,87.5C 336.833,134.837 336.667,182.17 335.5,229.5C 334.738,228.372 334.071,227.205 333.5,226C 329.996,224.149 326.33,222.816 322.5,222C 317.43,218.628 312.097,216.128 306.5,214.5 Z"/></g>
<g><path style="opacity:0.498" fill="#badbef" d="M 306.5,214.5 C 312.097,216.128 317.43,218.628 322.5,222C 326.33,222.816 329.996,224.149 333.5,226C 334.071,227.205 334.738,228.372 335.5,229.5C 336.667,182.17 336.833,134.837 336,87.5C 334.556,89.1554 332.722,89.822 330.5,89.5C 332.089,87.6944 334.089,86.3611 336.5,85.5C 337.747,133.54 338.414,181.54 338.5,229.5C 337.652,231.283 336.319,231.783 334.5,231C 324.939,225.726 315.606,220.226 306.5,214.5 Z"/></g>
<g><path style="opacity:1" fill="#467bb6" d="M 272.5,106.5 C 275.173,106.684 275.84,107.851 274.5,110C 258.436,119.697 242.102,128.864 225.5,137.5C 226.486,135.484 228.153,134.151 230.5,133.5C 229.167,132.5 229.167,131.5 230.5,130.5C 232.633,130.419 234.633,129.919 236.5,129C 234.377,128.185 232.377,127.185 230.5,126C 231.167,125.667 231.833,125.333 232.5,125C 231.663,123.989 231.33,122.822 231.5,121.5C 235.833,121.167 237.833,123.167 237.5,127.5C 239.288,127.785 240.955,127.452 242.5,126.5C 245.085,124.588 247.418,122.421 249.5,120C 251.167,119.667 252.833,119.333 254.5,119C 253.874,118.25 253.374,117.416 253,116.5C 252.311,117.357 251.478,118.023 250.5,118.5C 246.609,116.796 246.609,114.963 250.5,113C 254.062,112.261 257.228,110.761 260,108.5C 264.05,110.465 268.217,110.798 272.5,109.5C 272.5,108.5 272.5,107.5 272.5,106.5 Z"/></g>
<g><path style="opacity:1" fill="#4179b6" d="M 203.5,150.5 C 201.881,152.238 199.881,152.738 197.5,152C 180.605,142.392 163.939,132.559 147.5,122.5C 148.873,122.343 150.207,122.51 151.5,123C 156.779,126.223 162.279,129.056 168,131.5C 168.667,130.167 168.667,128.833 168,127.5C 167.346,128.696 166.846,128.696 166.5,127.5C 169.678,125.064 173.345,123.898 177.5,124C 176.833,123.667 176.167,123.333 175.5,123C 177.321,120.863 179.654,120.03 182.5,120.5C 182.5,122.167 182.5,123.833 182.5,125.5C 181.178,125.67 180.011,125.337 179,124.5C 178.909,126.796 179.076,129.13 179.5,131.5C 179.351,133.32 178.684,134.82 177.5,136C 184.116,135.766 184.783,137.1 179.5,140C 181.833,140.333 184.167,140.667 186.5,141C 187.38,142.356 187.714,143.856 187.5,145.5C 189.199,145.34 190.866,145.506 192.5,146C 195.295,149.628 198.962,151.128 203.5,150.5 Z"/></g>
<g><path style="opacity:0.208" fill="#d2ebf4" d="M 294.5,110.5 C 294.217,111.289 293.717,111.956 293,112.5C 292.5,143.832 292.333,175.165 292.5,206.5C 291.336,175.003 291.169,143.336 292,111.5C 292.671,110.748 293.504,110.414 294.5,110.5 Z"/></g>
<g><path style="opacity:0.417" fill="#8bafd0" d="M 120.5,119.5 C 118.509,146.48 117.842,173.813 118.5,201.5C 117.082,196.234 116.415,190.734 116.5,185C 117.389,162.843 117.722,140.676 117.5,118.5C 118.791,118.263 119.791,118.596 120.5,119.5 Z"/></g>
<g><path style="opacity:0.537" fill="#5a7a9f" d="M 280.5,201.5 C 280.667,175.165 280.5,148.831 280,122.5C 279.692,121.692 279.192,121.025 278.5,120.5C 277.583,121.127 276.583,121.461 275.5,121.5C 276.911,119.461 278.911,118.461 281.5,118.5C 281.831,146.338 281.498,174.005 280.5,201.5 Z"/></g>
<g><path style="opacity:1" fill="#3376bc" d="M 276.5,203.5 C 276.5,204.167 276.167,204.5 275.5,204.5C 274.22,203.069 272.553,202.402 270.5,202.5C 270.5,203.5 270.5,204.5 270.5,205.5C 267.179,207.418 263.179,208.751 258.5,209.5C 258.709,210.086 259.043,210.586 259.5,211C 257.453,212.073 255.453,213.239 253.5,214.5C 252.614,215.325 252.281,216.325 252.5,217.5C 250.545,216.677 248.545,216.51 246.5,217C 243.074,220.784 238.741,222.617 233.5,222.5C 233.67,223.822 233.337,224.989 232.5,226C 233.448,226.483 234.448,226.649 235.5,226.5C 225.621,232.712 215.288,238.045 204.5,242.5C 204.333,215.498 204.5,188.498 205,161.5C 206.33,160.418 207.83,159.751 209.5,159.5C 213.956,158.516 218.122,156.849 222,154.5C 223.882,155.606 225.716,155.606 227.5,154.5C 226.624,153.749 225.624,153.249 224.5,153C 227.627,150.094 231.127,148.927 235,149.5C 235.5,149.167 236,148.833 236.5,148.5C 235.833,147.833 235.167,147.167 234.5,146.5C 236.341,145.77 238.175,145.103 240,144.5C 240.711,146.367 240.211,147.867 238.5,149C 240.797,149.018 243.131,148.851 245.5,148.5C 245.5,149.5 245.5,150.5 245.5,151.5C 249.806,150.934 250.139,150.268 246.5,149.5C 246.5,148.167 246.5,146.833 246.5,145.5C 250.257,145.714 250.924,144.714 248.5,142.5C 250.02,140.338 251.02,138.005 251.5,135.5C 254.551,135.546 257.218,134.546 259.5,132.5C 260.167,132.833 260.833,133.167 261.5,133.5C 262.59,132.273 263.924,131.44 265.5,131C 264.098,129.658 264.431,128.824 266.5,128.5C 268.447,129.277 270.28,130.277 272,131.5C 273.713,130.863 273.879,129.863 272.5,128.5C 270.922,127.702 269.256,127.202 267.5,127C 268.056,126.617 268.389,126.117 268.5,125.5C 271.689,123.893 274.355,124.56 276.5,127.5C 277.167,126.5 277.833,125.5 278.5,124.5C 279.666,149.16 279.833,173.827 279,198.5C 277.562,199.9 276.729,201.567 276.5,203.5 Z"/></g>
<g><path style="opacity:1" fill="#3276bc" d="M 172.5,149.5 C 178.165,151.997 183.498,154.997 188.5,158.5C 188.389,159.117 188.056,159.617 187.5,160C 188.901,160.41 190.234,160.91 191.5,161.5C 192.647,185.791 192.814,210.124 192,234.5C 191.667,234.833 191.333,235.167 191,235.5C 186.83,233.78 182.664,232.947 178.5,233C 175.437,231.475 172.77,229.475 170.5,227C 167.242,226.997 164.575,225.83 162.5,223.5C 163.313,222.186 164.313,221.019 165.5,220C 163.193,219.221 161.193,219.721 159.5,221.5C 158.796,219.899 157.629,218.565 156,217.5C 155.311,218.357 154.478,219.023 153.5,219.5C 150.787,217.267 147.787,215.6 144.5,214.5C 144.714,212.856 144.38,211.356 143.5,210C 137.14,209.873 131.307,207.707 126,203.5C 125.383,202.551 125.549,201.718 126.5,201C 124.257,201.319 122.09,201.152 120,200.5C 119.167,174.16 119.333,147.827 120.5,121.5C 125.395,124.686 130.395,127.686 135.5,130.5C 135.88,132.021 136.046,133.687 136,135.5C 137.418,133.637 139.251,133.137 141.5,134C 145.924,135.626 149.757,138.126 153,141.5C 156.299,143.464 159.799,144.964 163.5,146C 164.126,146.75 164.626,147.584 165,148.5C 165.333,148.167 165.667,147.833 166,147.5C 167.897,149.016 170.064,149.683 172.5,149.5 Z"/></g>
<g><path style="opacity:0.994" fill="#3970aa" d="M 280.5,201.5 C 279.713,203.104 278.38,203.771 276.5,203.5C 276.729,201.567 277.562,199.9 279,198.5C 279.833,173.827 279.666,149.16 278.5,124.5C 277.833,125.5 277.167,126.5 276.5,127.5C 274.355,124.56 271.689,123.893 268.5,125.5C 270.336,123.412 272.669,122.079 275.5,121.5C 276.583,121.461 277.583,121.127 278.5,120.5C 279.192,121.025 279.692,121.692 280,122.5C 280.5,148.831 280.667,175.165 280.5,201.5 Z"/></g>
<g><path style="opacity:1" fill="#5781af" d="M 225.5,137.5 C 218.504,142.334 211.171,146.667 203.5,150.5C 204.234,149.292 204.567,147.959 204.5,146.5C 206.167,146.5 207.833,146.5 209.5,146.5C 209.5,145.5 209.5,144.5 209.5,143.5C 211.167,143.5 212.833,143.5 214.5,143.5C 214.5,142.5 214.5,141.5 214.5,140.5C 215.833,140.5 217.167,140.5 218.5,140.5C 218.312,138.897 218.812,137.563 220,136.5C 221.699,137.406 223.533,137.739 225.5,137.5 Z"/></g>
<g><path style="opacity:1" fill="#4179b5" d="M 268.5,125.5 C 268.389,126.117 268.056,126.617 267.5,127C 269.256,127.202 270.922,127.702 272.5,128.5C 273.879,129.863 273.713,130.863 272,131.5C 270.28,130.277 268.447,129.277 266.5,128.5C 264.431,128.824 264.098,129.658 265.5,131C 263.924,131.44 262.59,132.273 261.5,133.5C 260.833,133.167 260.167,132.833 259.5,132.5C 257.218,134.546 254.551,135.546 251.5,135.5C 251.02,138.005 250.02,140.338 248.5,142.5C 250.924,144.714 250.257,145.714 246.5,145.5C 246.5,146.833 246.5,148.167 246.5,149.5C 250.139,150.268 249.806,150.934 245.5,151.5C 245.5,150.5 245.5,149.5 245.5,148.5C 243.131,148.851 240.797,149.018 238.5,149C 240.211,147.867 240.711,146.367 240,144.5C 238.175,145.103 236.341,145.77 234.5,146.5C 235.167,147.167 235.833,147.833 236.5,148.5C 236,148.833 235.5,149.167 235,149.5C 231.127,148.927 227.627,150.094 224.5,153C 225.624,153.249 226.624,153.749 227.5,154.5C 225.716,155.606 223.882,155.606 222,154.5C 218.122,156.849 213.956,158.516 209.5,159.5C 228.669,147.412 248.335,136.079 268.5,125.5 Z"/></g>
<g><path style="opacity:0.363" fill="#8aabc5" d="M 188.5,158.5 C 190.426,159.242 192.259,160.242 194,161.5C 194.5,188.498 194.667,215.498 194.5,242.5C 193.209,242.737 192.209,242.404 191.5,241.5C 192.833,228.684 193.499,215.517 193.5,202C 193.333,188.833 193.167,175.667 193,162.5C 192.617,161.944 192.117,161.611 191.5,161.5C 190.234,160.91 188.901,160.41 187.5,160C 188.056,159.617 188.389,159.117 188.5,158.5 Z"/></g>
<g><path style="opacity:1" fill="#4f7db1" d="M 275.5,204.5 C 267.996,209.087 260.329,213.42 252.5,217.5C 252.281,216.325 252.614,215.325 253.5,214.5C 255.453,213.239 257.453,212.073 259.5,211C 259.043,210.586 258.709,210.086 258.5,209.5C 263.179,208.751 267.179,207.418 270.5,205.5C 270.5,204.5 270.5,203.5 270.5,202.5C 272.553,202.402 274.22,203.069 275.5,204.5 Z"/></g>
<g><path style="opacity:1" fill="#4475aa" d="M 120.5,119.5 C 138.168,128.998 155.501,138.998 172.5,149.5C 170.064,149.683 167.897,149.016 166,147.5C 165.667,147.833 165.333,148.167 165,148.5C 164.626,147.584 164.126,146.75 163.5,146C 159.799,144.964 156.299,143.464 153,141.5C 149.757,138.126 145.924,135.626 141.5,134C 139.251,133.137 137.418,133.637 136,135.5C 136.046,133.687 135.88,132.021 135.5,130.5C 130.395,127.686 125.395,124.686 120.5,121.5C 119.333,147.827 119.167,174.16 120,200.5C 122.09,201.152 124.257,201.319 126.5,201C 125.549,201.718 125.383,202.551 126,203.5C 131.307,207.707 137.14,209.873 143.5,210C 144.38,211.356 144.714,212.856 144.5,214.5C 147.787,215.6 150.787,217.267 153.5,219.5C 154.478,219.023 155.311,218.357 156,217.5C 157.629,218.565 158.796,219.899 159.5,221.5C 161.193,219.721 163.193,219.221 165.5,220C 164.313,221.019 163.313,222.186 162.5,223.5C 164.575,225.83 167.242,226.997 170.5,227C 172.77,229.475 175.437,231.475 178.5,233C 182.664,232.947 186.83,233.78 191,235.5C 191.333,235.167 191.667,234.833 192,234.5C 192.814,210.124 192.647,185.791 191.5,161.5C 192.117,161.611 192.617,161.944 193,162.5C 193.167,175.667 193.333,188.833 193.5,202C 193.499,215.517 192.833,228.684 191.5,241.5C 166.655,228.962 142.321,215.628 118.5,201.5C 117.842,173.813 118.509,146.48 120.5,119.5 Z"/></g>
<g><path style="opacity:1" fill="#97d5f7" d="M 305.5,253.5 C 304.417,253.461 303.417,253.127 302.5,252.5C 298.515,256.099 293.848,258.265 288.5,259C 282.438,265.97 274.771,269.803 265.5,270.5C 264.937,272.709 263.604,274.209 261.5,275C 261.833,275.333 262.167,275.667 262.5,276C 261.051,277.117 259.384,277.784 257.5,278C 256.695,279.113 256.028,280.279 255.5,281.5C 241.727,289.892 227.727,298.059 213.5,306C 210.691,307.741 207.691,308.908 204.5,309.5C 204.333,291.497 204.5,273.497 205,255.5C 230.2,240.317 256.033,226.317 282.5,213.5C 284.299,213.577 285.966,214.077 287.5,215C 301.333,223.082 315,231.416 328.5,240C 321.135,245.016 313.468,249.516 305.5,253.5 Z"/></g>
<g><path style="opacity:1" fill="#5882b7" d="M 252.5,217.5 C 247.089,220.894 241.422,223.894 235.5,226.5C 234.448,226.649 233.448,226.483 232.5,226C 233.337,224.989 233.67,223.822 233.5,222.5C 238.741,222.617 243.074,220.784 246.5,217C 248.545,216.51 250.545,216.677 252.5,217.5 Z"/></g>
<g><path style="opacity:1" fill="#96d4f7" d="M 193.5,255.5 C 193.5,272.5 193.5,289.5 193.5,306.5C 190.5,305.833 187.5,305.167 184.5,304.5C 172.887,298.359 161.22,292.192 149.5,286C 123.003,270.919 96.6694,255.586 70.5,240C 85.0225,229.991 100.189,221.158 116,213.5C 117.888,213.796 119.722,214.296 121.5,215C 145.724,228.274 169.724,241.774 193.5,255.5 Z"/></g>
<g><path style="opacity:0.406" fill="#b8e1ed" d="M 193.5,255.5 C 194.497,273.326 194.83,291.326 194.5,309.5C 190.58,308.873 187.247,307.207 184.5,304.5C 187.5,305.167 190.5,305.833 193.5,306.5C 193.5,289.5 193.5,272.5 193.5,255.5 Z"/></g>
<g><path style="opacity:0.914" fill="#abd9ee" d="M 305.5,253.5 C 289.164,263.337 272.498,272.67 255.5,281.5C 256.028,280.279 256.695,279.113 257.5,278C 259.384,277.784 261.051,277.117 262.5,276C 262.167,275.667 261.833,275.333 261.5,275C 263.604,274.209 264.937,272.709 265.5,270.5C 274.771,269.803 282.438,265.97 288.5,259C 293.848,258.265 298.515,256.099 302.5,252.5C 303.417,253.127 304.417,253.461 305.5,253.5 Z"/></g>
<g><path style="opacity:0.242" fill="#a3a4a4" d="M 328.5,331.5 C 329.167,341.5 329.833,351.5 330.5,361.5C 330.217,362.289 329.717,362.956 329,363.5C 328.5,352.839 328.333,342.172 328.5,331.5 Z"/></g>
<g><path style="opacity:0.303" fill="#959696" d="M 163.5,349.5 C 163.44,350.043 163.107,350.376 162.5,350.5C 161.504,344.537 161.171,338.537 161.5,332.5C 158.167,332.5 154.833,332.5 151.5,332.5C 151.5,350.833 151.5,369.167 151.5,387.5C 150.503,369.007 150.17,350.341 150.5,331.5C 154.5,331.5 158.5,331.5 162.5,331.5C 162.177,337.69 162.51,343.69 163.5,349.5 Z"/></g>
<g><path style="opacity:0.067" fill="#d7d7d8" d="M 296.5,346.5 C 297.964,345.84 299.631,345.507 301.5,345.5C 304.486,345.382 307.152,346.048 309.5,347.5C 305.202,346.8 300.869,346.467 296.5,346.5 Z"/></g>
<g><path style="opacity:0.141" fill="#b6b7b8" d="M 95.5,347.5 C 99.2984,346.517 103.298,346.183 107.5,346.5C 107.737,347.791 107.404,348.791 106.5,349.5C 103.316,347.586 99.649,346.92 95.5,347.5 Z"/></g>
<g><path style="opacity:0.129" fill="#b2b2b3" d="M 132.5,346.5 C 135.491,346.166 137.824,347.166 139.5,349.5C 136.982,348.736 134.649,347.736 132.5,346.5 Z"/></g>
<g><path style="opacity:0.808" fill="#6d6e6f" d="M 296.5,346.5 C 294.898,348.074 292.898,348.741 290.5,348.5C 292.102,346.926 294.102,346.259 296.5,346.5 Z"/></g>
<g><path style="opacity:0.529" fill="#848685" d="M 119.5,347.5 C 119.027,348.906 118.027,349.573 116.5,349.5C 116.973,348.094 117.973,347.427 119.5,347.5 Z"/></g>
<g><path style="opacity:1" fill="#242627" d="M 275.5,357.5 C 275.5,367.167 275.5,376.833 275.5,386.5C 271.584,386.296 267.918,386.296 264.5,386.5C 255.65,391.392 248.15,389.725 242,381.5C 238.586,372.211 241.419,365.877 250.5,362.5C 255.537,362.413 260.537,362.746 265.5,363.5C 265.784,361.585 265.451,359.919 264.5,358.5C 259.108,355.905 253.608,355.905 248,358.5C 244.957,356.043 243.791,353.043 244.5,349.5C 252.98,345.056 261.647,344.556 270.5,348C 273.892,350.285 275.559,353.452 275.5,357.5 Z M 255.5,369.5 C 260.521,368.506 263.855,370.34 265.5,375C 265.223,376.892 264.223,378.225 262.5,379C 252.733,380.762 250.399,377.595 255.5,369.5 Z"/></g>
<g><path style="opacity:0.478" fill="#7e8080" d="M 116.5,349.5 C 115.167,351.5 113.5,353.167 111.5,354.5C 112.167,351.833 113.833,350.167 116.5,349.5 Z"/></g>
<g><path style="opacity:0.431" fill="#949494" d="M 231.5,349.5 C 233.587,350.585 234.92,352.251 235.5,354.5C 233.413,353.415 232.08,351.749 231.5,349.5 Z"/></g>
<g><path style="opacity:0.737" fill="#666666" d="M 290.5,348.5 C 289.415,350.587 287.749,351.92 285.5,352.5C 286.585,350.413 288.251,349.08 290.5,348.5 Z"/></g>
<g><path style="opacity:1" fill="#27292a" d="M 231.5,349.5 C 232.08,351.749 233.413,353.415 235.5,354.5C 237.446,356.734 238.613,359.401 239,362.5C 239.812,366.689 239.645,370.689 238.5,374.5C 236.455,375.923 235.455,377.923 235.5,380.5C 234.522,383.478 232.522,385.478 229.5,386.5C 224.213,387.342 218.88,387.676 213.5,387.5C 211.418,387.376 209.918,386.376 209,384.5C 208.501,389.489 208.334,394.489 208.5,399.5C 204.5,399.5 200.5,399.5 196.5,399.5C 196.333,382.163 196.5,364.83 197,347.5C 200.394,346.544 203.894,346.211 207.5,346.5C 207.5,347.5 207.5,348.5 207.5,349.5C 208.779,350.715 209.779,350.382 210.5,348.5C 217.614,344.51 224.614,344.843 231.5,349.5 Z M 222.5,356.5 C 223.5,358.167 224.833,359.5 226.5,360.5C 227.36,364.434 227.693,368.434 227.5,372.5C 224.49,378.142 219.823,379.975 213.5,378C 207.228,371.447 206.894,364.613 212.5,357.5C 215.764,356.676 219.098,356.342 222.5,356.5 Z"/></g>
<g><path style="opacity:0.478" fill="#8f9293" d="M 210.5,348.5 C 209.779,350.382 208.779,350.715 207.5,349.5C 208.391,348.89 209.391,348.557 210.5,348.5 Z"/></g>
<g><path style="opacity:0.125" fill="#929394" d="M 222.5,356.5 C 219.098,356.342 215.764,356.676 212.5,357.5C 212.611,356.883 212.944,356.383 213.5,356C 216.696,355.195 219.696,355.362 222.5,356.5 Z"/></g>
<g><path style="opacity:0.125" fill="#b8b9bb" d="M 283.5,354.5 C 283.573,356.027 282.906,357.027 281.5,357.5C 281.427,355.973 282.094,354.973 283.5,354.5 Z"/></g>
<g><path style="opacity:0.302" fill="#9e9e9e" d="M 104.5,357.5 C 104.405,359.786 103.738,361.786 102.5,363.5C 102.259,361.102 102.926,359.102 104.5,357.5 Z"/></g>
<g><path style="opacity:0.004" fill="#b0b1b2" d="M 47.5,358.5 C 48.9238,360.515 49.5905,362.848 49.5,365.5C 48.0762,363.485 47.4095,361.152 47.5,358.5 Z"/></g>
<g><path style="opacity:0.473" fill="#878788" d="M 264.5,358.5 C 265.451,359.919 265.784,361.585 265.5,363.5C 260.537,362.746 255.537,362.413 250.5,362.5C 254.702,361.201 259.036,361.201 263.5,362.5C 264.429,361.311 264.762,359.978 264.5,358.5 Z"/></g>
<g><path style="opacity:0.361" fill="#838484" d="M 190.5,355.5 C 192.914,359.021 193.914,363.021 193.5,367.5C 193.333,369.833 193.167,372.167 193,374.5C 192.722,375.416 192.222,376.082 191.5,376.5C 192.99,369.388 192.656,362.388 190.5,355.5 Z"/></g>
<g><path style="opacity:0.118" fill="#9b9c9c" d="M 226.5,360.5 C 227.117,360.611 227.617,360.944 228,361.5C 228.81,365.358 228.643,369.024 227.5,372.5C 227.693,368.434 227.36,364.434 226.5,360.5 Z"/></g>
<g><path style="opacity:0.122" fill="#a9a9ab" d="M 292.5,361.5 C 291.167,365.5 291.167,369.5 292.5,373.5C 291.883,373.389 291.383,373.056 291,372.5C 290.333,369.167 290.333,365.833 291,362.5C 291.383,361.944 291.883,361.611 292.5,361.5 Z"/></g>
<g><path style="opacity:0.318" fill="#7b7b7c" d="M 146.5,360.5 C 147.479,363.625 147.813,366.958 147.5,370.5C 138.167,370.5 128.833,370.5 119.5,370.5C 128.318,369.507 137.318,369.173 146.5,369.5C 146.5,366.5 146.5,363.5 146.5,360.5 Z"/></g>
<g><path style="opacity:1" fill="#202324" d="M 163.5,349.5 C 170.532,344.353 177.866,344.186 185.5,349C 187.79,350.777 189.457,352.944 190.5,355.5C 192.656,362.388 192.99,369.388 191.5,376.5C 189.895,381.104 186.895,384.438 182.5,386.5C 177.213,387.342 171.88,387.676 166.5,387.5C 164.983,387.489 163.816,386.823 163,385.5C 159.659,388.649 155.825,389.316 151.5,387.5C 151.5,369.167 151.5,350.833 151.5,332.5C 154.833,332.5 158.167,332.5 161.5,332.5C 161.171,338.537 161.504,344.537 162.5,350.5C 163.107,350.376 163.44,350.043 163.5,349.5 Z M 177.5,357.5 C 178.167,358.833 179.167,359.833 180.5,360.5C 182.576,366.793 181.576,372.459 177.5,377.5C 172.743,379.199 168.41,378.532 164.5,375.5C 164.34,373.847 163.674,372.514 162.5,371.5C 162.423,367.785 162.756,364.119 163.5,360.5C 164.833,359.833 165.833,358.833 166.5,357.5C 170.167,356.167 173.833,356.167 177.5,357.5 Z"/></g>
<g><path style="opacity:0.204" fill="#9f9fa0" d="M 163.5,360.5 C 162.756,364.119 162.423,367.785 162.5,371.5C 161.842,370.207 161.508,368.707 161.5,367C 161.336,364.456 162.003,362.29 163.5,360.5 Z"/></g>
<g><path style="opacity:0.475" fill="#929292" d="M 177.5,357.5 C 179.5,357.5 180.5,358.5 180.5,360.5C 179.167,359.833 178.167,358.833 177.5,357.5 Z"/></g>
<g><path style="opacity:0.176" fill="#949695" d="M 177.5,357.5 C 173.833,356.167 170.167,356.167 166.5,357.5C 166.611,356.883 166.944,356.383 167.5,356C 170.5,355.333 173.5,355.333 176.5,356C 177.056,356.383 177.389,356.883 177.5,357.5 Z"/></g>
<g><path style="opacity:0.031" fill="#99999a" d="M 50.5,368.5 C 52.924,373.847 54.5907,379.513 55.5,385.5C 53.076,380.153 51.4093,374.487 50.5,368.5 Z"/></g>
<g><path style="opacity:0.512" fill="#626364" d="M 275.5,357.5 C 276.658,367.325 276.825,377.325 276,387.5C 272.018,388.94 268.185,388.607 264.5,386.5C 267.918,386.296 271.584,386.296 275.5,386.5C 275.5,376.833 275.5,367.167 275.5,357.5 Z"/></g>
<g><path style="opacity:0.18" fill="#b1b2b3" d="M 162.5,371.5 C 163.674,372.514 164.34,373.847 164.5,375.5C 162.896,374.713 162.229,373.38 162.5,371.5 Z"/></g>
<g><path style="opacity:1" fill="#232627" d="M 132.5,346.5 C 134.649,347.736 136.982,348.736 139.5,349.5C 143.595,352.017 145.928,355.684 146.5,360.5C 146.5,363.5 146.5,366.5 146.5,369.5C 137.318,369.173 128.318,369.507 119.5,370.5C 120.04,373.745 121.706,376.245 124.5,378C 130.195,379.44 135.195,378.274 139.5,374.5C 141.833,376.333 144.167,378.167 146.5,380C 138.206,389.902 128.206,391.902 116.5,386C 108.699,379.6 105.866,371.433 108,361.5C 108.522,358.719 109.689,356.385 111.5,354.5C 113.5,353.167 115.167,351.5 116.5,349.5C 118.027,349.573 119.027,348.906 119.5,347.5C 123.737,345.473 128.07,345.139 132.5,346.5 Z M 135.5,360.5 C 133.257,361.812 130.59,362.478 127.5,362.5C 124.833,362.333 122.167,362.167 119.5,362C 120.252,361.329 120.586,360.496 120.5,359.5C 125.937,353.924 130.937,354.257 135.5,360.5 Z"/></g>
<g><path style="opacity:0.315" fill="#868787" d="M 120.5,359.5 C 120.586,360.496 120.252,361.329 119.5,362C 122.167,362.167 124.833,362.333 127.5,362.5C 130.59,362.478 133.257,361.812 135.5,360.5C 136.404,361.209 136.737,362.209 136.5,363.5C 130.5,363.5 124.5,363.5 118.5,363.5C 118.229,361.62 118.896,360.287 120.5,359.5 Z"/></g>
<g><path style="opacity:1" fill="#232627" d="M 57.5,352.5 C 57.7402,357.12 58.7402,361.453 60.5,365.5C 60.7038,368.518 61.0371,371.518 61.5,374.5C 62.5,374.5 63.5,374.5 64.5,374.5C 64.5,372.833 64.5,371.167 64.5,369.5C 64.9257,365.573 65.9257,361.907 67.5,358.5C 68.9238,356.485 69.5905,354.152 69.5,351.5C 69.2865,349.856 69.6198,348.356 70.5,347C 74.1516,346.501 77.8183,346.335 81.5,346.5C 81.5,347.5 81.5,348.5 81.5,349.5C 81.4095,352.152 82.0762,354.485 83.5,356.5C 84.7682,358.905 85.4349,361.572 85.5,364.5C 85.4095,367.152 86.0762,369.485 87.5,371.5C 87.281,372.675 87.6143,373.675 88.5,374.5C 89.4287,373.311 89.762,371.978 89.5,370.5C 89.2322,368.901 89.5655,367.568 90.5,366.5C 92.0395,364.162 92.7062,361.495 92.5,358.5C 93.9238,356.485 94.5905,354.152 94.5,351.5C 94.2322,349.901 94.5655,348.568 95.5,347.5C 99.649,346.92 103.316,347.586 106.5,349.5C 106.037,352.221 105.371,354.888 104.5,357.5C 102.926,359.102 102.259,361.102 102.5,363.5C 101.87,367.048 100.87,370.381 99.5,373.5C 96.9758,376.239 95.9758,379.572 96.5,383.5C 96.7035,385.39 96.0368,386.89 94.5,388C 90.8333,388.667 87.1667,388.667 83.5,388C 80.261,380.448 77.9276,372.615 76.5,364.5C 76.631,363.761 76.4643,363.094 76,362.5C 74.8118,363.563 74.3118,364.897 74.5,366.5C 73.0518,374.01 70.7185,381.177 67.5,388C 63.8333,388.667 60.1667,388.667 56.5,388C 55.7476,387.329 55.4142,386.496 55.5,385.5C 54.5907,379.513 52.924,373.847 50.5,368.5C 49.596,367.791 49.2627,366.791 49.5,365.5C 49.5905,362.848 48.9238,360.515 47.5,358.5C 45.5841,354.837 44.5841,350.837 44.5,346.5C 48.5546,346.176 52.5546,346.509 56.5,347.5C 57.3094,349.071 57.6427,350.738 57.5,352.5 Z"/></g>
<g><path style="opacity:0.627" fill="#7b7c7d" d="M 60.5,365.5 C 61.6206,367.954 62.454,370.621 63,373.5C 63.21,371.942 63.71,370.609 64.5,369.5C 64.5,371.167 64.5,372.833 64.5,374.5C 63.5,374.5 62.5,374.5 61.5,374.5C 61.0371,371.518 60.7038,368.518 60.5,365.5 Z"/></g>
<g><path style="opacity:0.227" fill="#9e9fa0" d="M 89.5,370.5 C 89.762,371.978 89.4287,373.311 88.5,374.5C 87.6143,373.675 87.281,372.675 87.5,371.5C 88.1667,371.167 88.8333,370.833 89.5,370.5 Z"/></g>
<g><path style="opacity:0.604" fill="#787a79" d="M 85.5,364.5 C 86.9238,366.515 87.5905,368.848 87.5,371.5C 86.0762,369.485 85.4095,367.152 85.5,364.5 Z"/></g>
<g><path style="opacity:0.22" fill="#c2c1c3" d="M 76.5,364.5 C 75.8333,365.167 75.1667,365.833 74.5,366.5C 74.3118,364.897 74.8118,363.563 76,362.5C 76.4643,363.094 76.631,363.761 76.5,364.5 Z"/></g>
<g><path style="opacity:0.435" fill="#898a89" d="M 92.5,358.5 C 92.7062,361.495 92.0395,364.162 90.5,366.5C 90.5651,363.572 91.2318,360.905 92.5,358.5 Z"/></g>
<g><path style="opacity:0.396" fill="#818181" d="M 94.5,351.5 C 94.5905,354.152 93.9238,356.485 92.5,358.5C 92.4095,355.848 93.0762,353.515 94.5,351.5 Z"/></g>
<g><path style="opacity:0.31" fill="#9b9b9b" d="M 57.5,352.5 C 59.2598,356.547 60.2598,360.88 60.5,365.5C 58.7402,361.453 57.7402,357.12 57.5,352.5 Z"/></g>
<g><path style="opacity:0.706" fill="#727374" d="M 69.5,351.5 C 69.5905,354.152 68.9238,356.485 67.5,358.5C 67.4095,355.848 68.0762,353.515 69.5,351.5 Z"/></g>
<g><path style="opacity:0.729" fill="#797979" d="M 81.5,349.5 C 82.9238,351.515 83.5905,353.848 83.5,356.5C 82.0762,354.485 81.4095,352.152 81.5,349.5 Z"/></g>
<g><path style="opacity:0.922" fill="#606162" d="M 99.5,373.5 C 99.1007,377.116 98.1007,380.45 96.5,383.5C 95.9758,379.572 96.9758,376.239 99.5,373.5 Z"/></g>
<g><path style="opacity:1" fill="#242727" d="M 328.5,331.5 C 328.333,342.172 328.5,352.839 329,363.5C 329.717,362.956 330.217,362.289 330.5,361.5C 333.567,356.259 337.233,351.426 341.5,347C 345.486,346.501 349.486,346.334 353.5,346.5C 353.649,347.552 353.483,348.552 353,349.5C 348.051,354.443 343.884,359.943 340.5,366C 344.962,372.426 349.295,378.926 353.5,385.5C 350.316,387.414 346.649,388.08 342.5,387.5C 338.007,381.852 334.007,375.852 330.5,369.5C 330.631,368.624 330.298,367.957 329.5,367.5C 328.503,374.134 328.17,380.8 328.5,387.5C 325.101,388.82 321.601,388.82 318,387.5C 317.5,368.836 317.333,350.17 317.5,331.5C 321.167,331.5 324.833,331.5 328.5,331.5 Z"/></g>
<g><path style="opacity:0.203" fill="#a1a1a2" d="M 330.5,369.5 C 329.833,375.5 329.167,381.5 328.5,387.5C 328.17,380.8 328.503,374.134 329.5,367.5C 330.298,367.957 330.631,368.624 330.5,369.5 Z"/></g>
<g><path style="opacity:0.922" fill="#69696a" d="M 238.5,374.5 C 238.539,377.089 237.539,379.089 235.5,380.5C 235.455,377.923 236.455,375.923 238.5,374.5 Z"/></g>
<g><path style="opacity:1" fill="#232526" d="M 296.5,346.5 C 300.869,346.467 305.202,346.8 309.5,347.5C 311.903,347.695 313.57,348.862 314.5,351C 313.82,354.241 312.486,357.074 310.5,359.5C 308.604,358.725 306.937,357.725 305.5,356.5C 303.034,355.366 300.367,355.199 297.5,356C 296.058,356.377 295.058,357.21 294.5,358.5C 294.068,359.71 293.401,360.71 292.5,361.5C 291.883,361.611 291.383,361.944 291,362.5C 290.333,365.833 290.333,369.167 291,372.5C 291.383,373.056 291.883,373.389 292.5,373.5C 293.865,375.86 295.865,377.527 298.5,378.5C 300.966,379.634 303.633,379.801 306.5,379C 307.056,378.617 307.389,378.117 307.5,377.5C 308.721,376.972 309.887,376.305 311,375.5C 312.549,378.138 313.715,380.971 314.5,384C 302.001,392.581 291.168,390.747 282,378.5C 278.891,371.542 278.724,364.542 281.5,357.5C 282.906,357.027 283.573,356.027 283.5,354.5C 283.833,353.5 284.5,352.833 285.5,352.5C 287.749,351.92 289.415,350.587 290.5,348.5C 292.898,348.741 294.898,348.074 296.5,346.5 Z"/></g>
<g><path style="opacity:0.706" fill="#848587" d="M 307.5,377.5 C 307.389,378.117 307.056,378.617 306.5,379C 303.633,379.801 300.966,379.634 298.5,378.5C 301.57,378.632 304.57,378.299 307.5,377.5 Z"/></g>
<g><path style="opacity:0.192" fill="#9fa0a1" d="M 305.5,356.5 C 301.633,356.242 297.966,356.908 294.5,358.5C 295.058,357.21 296.058,356.377 297.5,356C 300.367,355.199 303.034,355.366 305.5,356.5 Z"/></g>
<g><path style="opacity:0.742" fill="#626264" d="M 182.5,386.5 C 177.329,389.92 171.996,390.253 166.5,387.5C 171.88,387.676 177.213,387.342 182.5,386.5 Z"/></g>
<g><path style="opacity:0.745" fill="#69696b" d="M 229.5,386.5 C 226.518,388.241 223.185,389.241 219.5,389.5C 217.201,389.401 215.201,388.734 213.5,387.5C 218.88,387.676 224.213,387.342 229.5,386.5 Z"/></g>
<g><path style="opacity:0.11" fill="#b7b8b8" d="M 353.5,385.5 C 354.404,386.209 354.737,387.209 354.5,388.5C 350.298,388.817 346.298,388.483 342.5,387.5C 346.649,388.08 350.316,387.414 353.5,385.5 Z"/></g>
</svg>
